<svg baseProfile="full" height="200" version="1.1" width="200" xmlns="http://www.w3.org/2000/svg" xmlns:ev="http://www.w3.org/2001/xml-events" xmlns:xlink="http://www.w3.org/1999/xlink"><defs /><g id="lines" stroke="black"><line x1="28.571428571428573" x2="28.571428571428573" y1="180.0" y2="20.0" /><line x1="28.571428571428573" x2="64.28571428571429" y1="20.0" y2="20.0" /><line x1="100.0" x2="100.0" y1="76.37401944745505" y2="20.0" /><line x1="100.0" x2="64.28571428571429" y1="20.0" y2="20.0" /><line x1="71.42857142857143" x2="71.42857142857143" y1="176.5327584746487" y2="76.37401944745505" /><line x1="71.42857142857143" x2="100.0" y1="76.37401944745505" y2="76.37401944745505" /><line x1="57.142857142857146" x2="57.142857142857146" y1="180.0" y2="176.5327584746487" /><line x1="57.142857142857146" x2="71.42857142857143" y1="176.5327584746487" y2="176.5327584746487" /><line x1="85.71428571428572" x2="85.71428571428572" y1="180.0" y2="176.5327584746487" /><line x1="85.71428571428572" x2="71.42857142857143" y1="176.5327584746487" y2="176.5327584746487" /><line x1="128.57142857142858" x2="128.57142857142858" y1="77.16257729313125" y2="76.37401944745505" /><line x1="128.57142857142858" x2="100.0" y1="76.37401944745505" y2="76.37401944745505" /><line x1="114.28571428571429" x2="114.28571428571429" y1="180.0" y2="77.16257729313125" /><line x1="114.28571428571429" x2="128.57142857142858" y1="77.16257729313125" y2="77.16257729313125" /><line x1="142.85714285714286" x2="142.85714285714286" y1="180.0" y2="77.16257729313125" /><line x1="142.85714285714286" x2="128.57142857142858" y1="77.16257729313125" y2="77.16257729313125" /></g><g font-size="14" text-anchor="start"><text x="105.0" y="71.37401944745505">0.005</text><text x="133.57142857142858" y="72.16257729313125">0.005</text></g><g font-size="14" text-anchor="end"><text x="66.42857142857143" y="171.5327584746487">0.000</text></g><g font-size="14" text-anchor="middle"><text x="64.28571428571429" y="15.0">0.007</text><text x="28.571428571428573" y="200.0">0</text><text x="57.142857142857146" y="200.0">0</text><text x="85.71428571428572" y="200.0">0</text><text x="114.28571428571429" y="200.0">0</text><text x="142.85714285714286" y="200.0">0</text></g><circle cx="64.28571428571429" cy="20.0" fill="black" r="3" /><circle cx="28.571428571428573" cy="180.0" fill="black" r="3" /><circle cx="100.0" cy="76.37401944745505" fill="black" r="3" /><circle cx="71.42857142857143" cy="176.5327584746487" fill="black" r="3" /><circle cx="57.142857142857146" cy="180.0" fill="black" r="3" /><circle cx="85.71428571428572" cy="180.0" fill="black" r="3" /><circle cx="128.57142857142858" cy="77.16257729313125" fill="black" r="3" /><circle cx="114.28571428571429" cy="180.0" fill="black" r="3" /><circle cx="142.85714285714286" cy="180.0" fill="black" r="3" /><g alignment-baseline="middle" font-size="14" font-style="italic" text-anchor="start" /><g alignment-baseline="middle" font-size="14" font-style="italic" text-anchor="end" /></svg>