<svg baseProfile="full" height="200" version="1.1" width="200" xmlns="http://www.w3.org/2000/svg" xmlns:ev="http://www.w3.org/2001/xml-events" xmlns:xlink="http://www.w3.org/1999/xlink"><defs /><g id="lines" stroke="black"><line x1="28.571428571428573" x2="28.571428571428573" y1="180.0" y2="20.0" /><line x1="28.571428571428573" x2="55.35714285714286" y1="20.0" y2="20.0" /><line x1="82.14285714285715" x2="82.14285714285715" y1="85.2895174921119" y2="20.0" /><line x1="82.14285714285715" x2="55.35714285714286" y1="20.0" y2="20.0" /><line x1="57.142857142857146" x2="57.142857142857146" y1="180.0" y2="85.2895174921119" /><line x1="57.142857142857146" x2="82.14285714285715" y1="85.2895174921119" y2="85.2895174921119" /><line x1="107.14285714285715" x2="107.14285714285715" y1="154.46762041975228" y2="85.2895174921119" /><line x1="107.14285714285715" x2="82.14285714285715" y1="85.2895174921119" y2="85.2895174921119" /><line x1="85.71428571428572" x2="85.71428571428572" y1="180.0" y2="154.46762041975228" /><line x1="85.71428571428572" x2="107.14285714285715" y1="154.46762041975228" y2="154.46762041975228" /><line x1="128.57142857142858" x2="128.57142857142858" y1="160.7774530849701" y2="154.46762041975228" /><line x1="128.57142857142858" x2="107.14285714285715" y1="154.46762041975228" y2="154.46762041975228" /><line x1="114.28571428571429" x2="114.28571428571429" y1="180.0" y2="160.7774530849701" /><line x1="114.28571428571429" x2="128.57142857142858" y1="160.7774530849701" y2="160.7774530849701" /><line x1="142.85714285714286" x2="142.85714285714286" y1="180.0" y2="160.7774530849701" /><line x1="142.85714285714286" x2="128.57142857142858" y1="160.7774530849701" y2="160.7774530849701" /></g><g font-size="14" text-anchor="start"><text x="87.14285714285715" y="80.2895174921119">1.19</text><text x="112.14285714285715" y="149.46762041975228">0.32</text><text x="133.57142857142858" y="155.7774530849701">0.24</text></g><g font-size="14" text-anchor="end" /><g font-size="14" text-anchor="middle"><text x="55.35714285714286" y="15.0">2.01</text><text x="28.571428571428573" y="200.0">0</text><text x="57.142857142857146" y="200.0">0</text><text x="85.71428571428572" y="200.0">0</text><text x="114.28571428571429" y="200.0">0</text><text x="142.85714285714286" y="200.0">0</text></g><circle cx="55.35714285714286" cy="20.0" fill="black" r="3" /><circle cx="28.571428571428573" cy="180.0" fill="black" r="3" /><circle cx="82.14285714285715" cy="85.2895174921119" fill="black" r="3" /><circle cx="57.142857142857146" cy="180.0" fill="black" r="3" /><circle cx="107.14285714285715" cy="154.46762041975228" fill="black" r="3" /><circle cx="85.71428571428572" cy="180.0" fill="black" r="3" /><circle cx="128.57142857142858" cy="160.7774530849701" fill="black" r="3" /><circle cx="114.28571428571429" cy="180.0" fill="black" r="3" /><circle cx="142.85714285714286" cy="180.0" fill="black" r="3" /><g alignment-baseline="middle" font-size="14" font-style="italic" text-anchor="start" /><g alignment-baseline="middle" font-size="14" font-style="italic" text-anchor="end" /></svg>